<?xml version="1.0" ?><svg enable-background="new 0 0 64 64" height="64px" id="Layer_1" version="1.1" viewBox="0 0 64 64" width="64px" xml:space="preserve" xmlns="http://www.w3.org/2000/svg" xmlns:xlink="http://www.w3.org/1999/xlink"><circle cx="32" cy="32" fill="#76C2AF" r="32"/><path d="M46,29c-2.972,0-5.433,2.163-5.91,5H38H14c-1.105,0-2,0.895-2,2v12v2c0,1.105,0.895,2,2,2h24  c1.105,0,2-0.895,2-2h10c1.105,0,2-0.895,2-2v-4v-8v-1C52,31.686,49.314,29,46,29z" fill="#231F20" opacity="0.2"/><path d="M52,34c0-1.105-0.895-2-2-2H14c-1.105,0-2,0.895-2,2v12c0,1.105,0.895,2,2,2h36c1.105,0,2-0.895,2-2V34z" fill="#4F5D73"/><path d="M40,42c0,3.314,2.686,6,6,6l0,0c3.314,0,6-2.686,6-6v-9c0-3.314-2.686-6-6-6l0,0c-3.314,0-6,2.686-6,6V42z" fill="#4F5D73"/><path d="M38,33c0,1.105-0.895,2-2,2H21c-1.105,0-2-0.895-2-2V14c0-1.105,0.895-2,2-2h15c1.105,0,2,0.895,2,2V33z" fill="#4F5D73"/><path d="M40,48c0,1.105-0.895,2-2,2H14c-1.105,0-2-0.895-2-2V34c0-1.105,0.895-2,2-2h24c1.105,0,2,0.895,2,2V48z" fill="#4F5D73"/><circle cx="46" cy="33" fill="#77B3D4" r="3"/><path d="M35,51c0,1.105-1.058,2-2.364,2h-8.273C23.058,53,22,52.105,22,51V35c0-1.105,1.058-2,2.364-2  h8.273C33.942,33,35,33.895,35,35V51z" fill="#231F20" opacity="0.2"/><path d="M34,48c0,1.105-0.895,2-2,2h-7c-1.105,0-2-0.895-2-2V32c0-1.105,0.895-2,2-2h7c1.105,0,2,0.895,2,2V48z" fill="#F5CF87"/><path d="M34,50c0,1.105-0.895,2-2,2h-7c-1.105,0-2-0.895-2-2V34c0-1.105,0.895-2,2-2h7c1.105,0,2,0.895,2,2V50z" fill="#4F5D73"/><path d="M49,43c0,1.105-0.895,2-2,2h-7c-1.105,0-2-0.895-2-2v-2c0-1.105,0.895-2,2-2h7c1.105,0,2,0.895,2,2V43z" fill="#E0E0D1"/><g opacity="0.2"><path d="M47,39h-7c-1.105,0-2,0.895-2,2v1c0-1.105,0.895-2,2-2h7c1.105,0,2,0.895,2,2v-1C49,39.895,48.105,39,47,39   z" fill="#231F20"/></g></svg>